<svg width="58" height="57" viewBox="0 0 58 57" fill="none" xmlns="http://www.w3.org/2000/svg">
<path d="M54.252 21.371H9.816C9.814 21.359 9.813 21.348 9.812 21.337L35.71 14.126L35.77 14.154L35.794 14.102L55.29 8.67304L53.041 2.42004C52.969 2.27504 51.182 -1.13496 44.772 0.393043C38.792 1.81704 3.307 11.921 3.043 12.004C2.981 12.011 1.506 12.188 0.765 13.284C0.333 13.925 0.243 14.713 0.497 15.628C0.97 17.331 1.209 18.205 1.32 18.61C0.507 19.49 0 20.655 0 21.945C0 23.79 1.029 25.382 2.532 26.23V53.291C2.532 54.878 3.822 56.167 5.408 56.167H54.253C55.84 56.167 57.129 54.878 57.129 53.291V24.247C57.128 22.661 55.839 21.371 54.252 21.371ZM41.342 2.47004C42.977 2.03204 44.263 1.69704 45.04 1.51204C46.501 1.16404 47.667 1.10204 48.603 1.19004L44.277 10.505L44.332 10.531L36.45 12.726L41.342 2.47004ZM21.62 7.93604C24.492 7.12904 27.43 6.30604 30.233 5.52404L25.32 15.826L16.715 18.222L21.62 7.93604ZM1.714 13.933C2.154 13.277 3.164 13.148 3.264 13.129C3.368 13.1 6.345 12.252 10.676 11.025L7.374 17.68C6.651 17.265 5.826 17.01 4.936 17.01C3.958 17.01 3.053 17.303 2.288 17.795C2.148 17.287 1.934 16.51 1.603 15.323C1.445 14.748 1.481 14.28 1.714 13.933ZM1.15 21.946C1.15 19.858 2.848 18.159 4.937 18.159C7.024 18.159 8.723 19.858 8.723 21.946C8.723 24.033 7.024 25.732 4.937 25.732C2.848 25.732 1.15 24.034 1.15 21.946ZM6.812 29.998H3.682V26.701C4.085 26.807 4.5 26.883 4.937 26.883C7.461 26.883 9.526 24.969 9.816 22.521H13.605L6.812 29.998ZM24.756 22.521H33.319L26.525 29.998H17.962L24.756 22.521ZM37.534 44.586L25.827 51.41C25.426 51.644 25.029 51.763 24.648 51.763C23.814 51.763 22.969 51.148 22.964 49.774L22.907 36.223C22.905 35.577 23.095 35.042 23.456 34.68C24.012 34.123 24.897 34.07 25.756 34.564L37.519 41.291C38.226 41.694 38.634 42.295 38.636 42.936C38.64 43.574 38.237 44.177 37.534 44.586ZM45.66 29.998H37.803L44.595 22.521H52.452L45.66 29.998Z" fill="#e4e4e7"/>
<path d="M4.909 24.3431C6.23945 24.3431 7.318 23.2645 7.318 21.9341C7.318 20.6036 6.23945 19.5251 4.909 19.5251C3.57855 19.5251 2.5 20.6036 2.5 21.9341C2.5 23.2645 3.57855 24.3431 4.909 24.3431Z" fill="#e4e4e7"/>
</svg>
