<svg width="90" height="90" viewBox="0 0 90 90" fill="none" xmlns="http://www.w3.org/2000/svg">
<path d="M45 0C20.1 0 0 20.1 0 45C0 69.9 20.1 90 45 90C69.9 90 90 69.9 90 45C90 20.1 69.9 0 45 0ZM56.4 49.4C56.1 49.6 55.7 49.7 55.4 49.7H49V69.5C49 71.7 47.2 73.5 45 73.5C42.8 73.5 41 71.7 41 69.5V49.7H34.7C33.5 49.7 32.6 48.8 32.6 47.6C32.6 47.2 32.7 46.9 32.9 46.6L43.3 28.7C43.9 27.7 45.1 27.4 46.1 27.9C46.4 28.1 46.7 28.3 46.9 28.7L57.3 46.6C57.7 47.5 57.4 48.8 56.4 49.4ZM65 24.5H25C22.8 24.5 21 22.7 21 20.5C21 18.3 22.8 16.5 25 16.5H65C67.2 16.5 69 18.3 69 20.5C69 22.7 67.2 24.5 65 24.5Z" fill="#3b82f6"/>
</svg>
