<svg width="125" height="115" viewBox="0 0 125 115" fill="none" xmlns="http://www.w3.org/2000/svg">
<path d="M53.1 49.625L3.1 78.525C1.8 79.325 0 78.325 0 76.825V18.925C0 17.325 1.7 16.425 3.1 17.125L53.1 46.025C54.4 46.825 54.4 48.825 53.1 49.625Z" fill="#141824"/>
<path d="M118.8 90.125L96.7 74.525C109.2 55.925 107.3 30.425 90.8 14.025C72.2 -4.675 41.8 -4.675 23.2 14.025C22.2 15.025 21.2 16.125 20.3 17.225L29.7 22.625C30.1 22.225 30.4 21.825 30.8 21.525C45.3 7.025 68.9001 7.025 83.4001 21.525C96.0001 34.125 97.6 53.625 88.3 68.025C86.9 70.225 85.3001 72.225 83.4001 74.125C81.5001 76.025 79.5 77.625 77.3 79.025C62.9 88.325 43.4 86.725 30.8 74.125C30.4 73.725 30.1 73.425 29.7 73.025L20.3 78.425C21.2 79.525 22.2 80.625 23.2 81.625C39.6 98.125 65.2 100.025 83.7 87.425L99.3 109.525C100 110.425 100.9 111.325 101.8 112.025C107.9 116.725 116.6 115.625 121.3 109.525C126 103.525 124.9 94.825 118.8 90.125Z" fill="#141824"/>
</svg>
